<svg width="867.2px" height="154.4px" xmlns="http://www.w3.org/2000/svg" viewBox="-183.61867675781247 -2.200000000000003 867.2373535156249 154.4" style="background: none" preserveAspectRatio="xMidYMid"><defs><filter id="editing-hover" x="-100%" y="-100%" width="300%" height="300%"><feFlood flood-color="#d88c51" result="flood"></feFlood><feComposite operator="in" in2="SourceAlpha" in="flood" result="shadow"></feComposite><feOffset dx="-4" dy="-4" in="SourceGraphic" result="offset-1"></feOffset><feOffset dx="4" dy="4" in="shadow" result="offset-2"></feOffset><feMerge><feMergeNode in="offset-2"></feMergeNode><feMergeNode in="offset-1"></feMergeNode></feMerge></filter></defs><g filter="url(#editing-hover)"><g transform="matrix(1.4,0,0,1.9,-176.8,229.5)"><path d="M 17.8 -62.1 L -0.7 -62.1 L 10.1 -118.2 L 28.8 -118.2 L 17.8 -62.1 Z M 91.9 -60.4 L 91.9 -60.4 L 91.9 -60.4 Q 81.6 -60.4 81.6 -68.4 L 81.6 -68.4 L 81.6 -68.4 Q 81.6 -71.8 83.1 -78.6 L 83.1 -78.6 L 83.1 -78.6 Q 84.6 -85.4 85.1 -88.1 L 85.1 -88.1 L 85.1 -88.1 Q 86.3 -94.3 86.3 -96.2 L 86.3 -96.2 L 86.3 -96.2 Q 86.3 -100.6 83 -100.6 L 83 -100.6 L 83 -100.6 Q 80.9 -100.6 78.9 -97.6 L 78.9 -97.6 L 78.9 -97.6 Q 76.8 -94.7 75.9 -88.8 L 75.9 -88.8 L 70.6 -62.1 L 54 -60.4 L 58.6 -83.5 L 58.6 -83.5 Q 59.4 -87.3 60.1 -91.6 L 60.1 -91.6 L 60.1 -91.6 Q 60.8 -96 60.8 -96.7 L 60.8 -96.7 L 60.8 -96.7 Q 60.8 -100.6 57.9 -100.6 L 57.9 -100.6 L 57.9 -100.6 Q 55.9 -100.6 53.8 -97.7 L 53.8 -97.7 L 53.8 -97.7 Q 51.7 -94.8 50.5 -88.8 L 50.5 -88.8 L 45.3 -62.1 L 28.5 -60.4 L 37.5 -105.4 L 51.3 -107.1 L 49.9 -98.5 L 49.9 -98.5 Q 52.1 -103.1 56.2 -105.1 L 56.2 -105.1 L 56.2 -105.1 Q 60.3 -107.1 66.6 -107.1 L 66.6 -107.1 L 66.6 -107.1 Q 70.3 -107.1 72.7 -105.3 L 72.7 -105.3 L 72.7 -105.3 Q 75 -103.5 75.8 -100.7 L 75.8 -100.7 L 75.8 -100.7 Q 77.3 -103.6 80.9 -105.4 L 80.9 -105.4 L 80.9 -105.4 Q 84.6 -107.1 89.2 -107.1 L 89.2 -107.1 L 89.2 -107.1 Q 93.7 -107.1 96 -106.1 L 96 -106.1 L 96 -106.1 Q 98.2 -105.2 99.6 -103.5 L 99.6 -103.5 L 99.6 -103.5 Q 101.9 -100.6 101.9 -95.1 L 101.9 -95.1 L 101.9 -95.1 Q 101.9 -89.8 99.6 -78.6 L 99.6 -78.6 L 99.6 -78.6 Q 98.4 -73.2 98.4 -71.2 L 98.4 -71.2 L 98.4 -71.2 Q 98.4 -69.2 99.6 -68 L 99.6 -68 L 99.6 -68 Q 100.7 -66.8 102.4 -66.7 L 102.4 -66.7 L 102.4 -66.7 Q 101.6 -63.8 98.6 -62.1 L 98.6 -62.1 L 98.6 -62.1 Q 95.7 -60.4 91.9 -60.4 Z M 112.7 -64.6 L 112.7 -64.6 L 112.7 -64.6 Q 110.7 -66.8 109.8 -70.3 L 109.8 -70.3 L 109.8 -70.3 Q 108.9 -73.8 108.9 -79.5 L 108.9 -79.5 L 108.9 -79.5 Q 108.9 -85.2 110.8 -90.4 L 110.8 -90.4 L 110.8 -90.4 Q 112.8 -95.6 116.4 -99.3 L 116.4 -99.3 L 116.4 -99.3 Q 123.7 -107.1 135.7 -107.1 L 135.7 -107.1 L 135.7 -107.1 Q 140.1 -107.1 143.2 -105.7 L 143.2 -105.7 L 157.7 -107.1 L 151.5 -74 L 151.5 -74 Q 151.2 -72.9 151.2 -71.1 L 151.2 -71.1 L 151.2 -71.1 Q 151.2 -69.2 152.3 -68 L 152.3 -68 L 152.3 -68 Q 153.5 -66.8 155.2 -66.7 L 155.2 -66.7 L 155.2 -66.7 Q 154.3 -63.8 151.2 -62.1 L 151.2 -62.1 L 151.2 -62.1 Q 148.1 -60.4 144.7 -60.4 L 144.7 -60.4 L 144.7 -60.4 Q 141.2 -60.4 138.8 -61.7 L 138.8 -61.7 L 138.8 -61.7 Q 136.5 -63 135.8 -65.2 L 135.8 -65.2 L 135.8 -65.2 Q 134.5 -63.1 131.6 -61.7 L 131.6 -61.7 L 131.6 -61.7 Q 128.7 -60.4 124.8 -60.4 L 124.8 -60.4 L 124.8 -60.4 Q 120.9 -60.4 117.8 -61.4 L 117.8 -61.4 L 117.8 -61.4 Q 114.7 -62.4 112.7 -64.6 Z M 130.6 -99.1 L 130.6 -99.1 L 130.6 -99.1 Q 129.6 -97.6 128.8 -95 L 128.8 -95 L 128.8 -95 Q 127.9 -92.4 126.5 -85.5 L 126.5 -85.5 L 126.5 -85.5 Q 125.1 -78.6 125.1 -73.6 L 125.1 -73.6 L 125.1 -73.6 Q 125.1 -68.7 125.9 -67.3 L 125.9 -67.3 L 125.9 -67.3 Q 126.6 -65.8 128 -65.8 L 128 -65.8 L 128 -65.8 Q 130.7 -65.8 132.7 -68.4 L 132.7 -68.4 L 132.7 -68.4 Q 134.7 -71 135.5 -75.6 L 135.5 -75.6 L 140 -100.5 L 140 -100.5 Q 138.2 -102 136.1 -102 L 136.1 -102 L 136.1 -102 Q 134 -102 132.8 -101.3 L 132.8 -101.3 L 132.8 -101.3 Q 131.6 -100.7 130.6 -99.1 Z M 168 -97.6 L 168 -97.6 L 168 -97.6 Q 170.9 -101.7 175.3 -104.4 L 175.3 -104.4 L 175.3 -104.4 Q 179.7 -107.1 185 -107.1 L 185 -107.1 L 185 -107.1 Q 190.4 -107.1 192.9 -105.4 L 192.9 -105.4 L 209.6 -107.1 L 203.8 -74.5 L 203.8 -74.5 Q 200.8 -57.8 194.6 -51.3 L 194.6 -51.3 L 194.6 -51.3 Q 188.5 -45.1 176.8 -45.1 L 176.8 -45.1 L 176.8 -45.1 Q 167.9 -45.1 162.8 -47.9 L 162.8 -47.9 L 162.8 -47.9 Q 157.7 -50.7 157.7 -55.3 L 157.7 -55.3 L 157.7 -55.3 Q 157.7 -58.8 160.3 -60.8 L 160.3 -60.8 L 160.3 -60.8 Q 162.9 -62.8 167 -62.8 L 167 -62.8 L 167 -62.8 Q 170.6 -62.8 173.3 -61.2 L 173.3 -61.2 L 173.3 -61.2 Q 174.9 -60.4 175.7 -59.2 L 175.7 -59.2 L 175.7 -59.2 Q 173.7 -57.5 173.7 -54.7 L 173.7 -54.7 L 173.7 -54.7 Q 173.7 -51 177.1 -51 L 177.1 -51 L 177.1 -51 Q 182.8 -51 186.1 -64.4 L 186.1 -64.4 L 186.1 -64.4 Q 187 -68.1 187.8 -71.8 L 187.8 -71.8 L 187.8 -71.8 Q 183.9 -67.1 175.3 -67.1 L 175.3 -67.1 L 175.3 -67.1 Q 169.2 -67.1 165.7 -70 L 165.7 -70 L 165.7 -70 Q 162.3 -72.9 162.3 -79.7 L 162.3 -79.7 L 162.3 -79.7 Q 162.3 -83.9 163.7 -88.7 L 163.7 -88.7 L 163.7 -88.7 Q 165.1 -93.5 168 -97.6 Z M 179.1 -79.4 L 179.1 -79.4 L 179.1 -79.4 Q 179.1 -73.6 182.1 -73.6 L 182.1 -73.6 L 182.1 -73.6 Q 184.1 -73.6 186.1 -75.8 L 186.1 -75.8 L 186.1 -75.8 Q 187.6 -77.6 188.2 -80.3 L 188.2 -80.3 L 192.5 -102.1 L 192.5 -102.1 Q 192.1 -102.2 191.7 -102.4 L 191.7 -102.4 L 191.7 -102.4 Q 190.8 -102.7 189.7 -102.7 L 189.7 -102.7 L 189.7 -102.7 Q 184.5 -102.7 181.5 -94.2 L 181.5 -94.2 L 181.5 -94.2 Q 179.1 -87.6 179.1 -79.4 Z M 247.3 -76.4 L 247.3 -76.4 L 247.3 -76.4 Q 249.5 -75 249.5 -71.8 L 249.5 -71.8 L 249.5 -71.8 Q 249.5 -68.6 247.8 -66.6 L 247.8 -66.6 L 247.8 -66.6 Q 246.2 -64.5 243.6 -63.2 L 243.6 -63.2 L 243.6 -63.2 Q 238.2 -60.4 232.3 -60.4 L 232.3 -60.4 L 232.3 -60.4 Q 226.4 -60.4 223 -61.6 L 223 -61.6 L 223 -61.6 Q 219.5 -62.9 217.2 -65.3 L 217.2 -65.3 L 217.2 -65.3 Q 212.7 -69.8 212.7 -78 L 212.7 -78 L 212.7 -78 Q 212.7 -90.9 219.7 -98.7 L 219.7 -98.7 L 219.7 -98.7 Q 227.2 -107.1 240.2 -107.1 L 240.2 -107.1 L 240.2 -107.1 Q 248.3 -107.1 252.3 -103.7 L 252.3 -103.7 L 252.3 -103.7 Q 255.2 -101.2 255.2 -97 L 255.2 -97 L 255.2 -97 Q 255.2 -82 229.4 -82 L 229.4 -82 L 229.4 -82 Q 229.1 -79.8 229.1 -78 L 229.1 -78 L 229.1 -78 Q 229.1 -74.1 230.8 -72.6 L 230.8 -72.6 L 230.8 -72.6 Q 232.5 -71.1 235.8 -71.1 L 235.8 -71.1 L 235.8 -71.1 Q 239 -71.1 242.4 -72.6 L 242.4 -72.6 L 242.4 -72.6 Q 245.9 -74.1 247.3 -76.4 Z M 230 -85.7 L 230 -85.7 L 230 -85.7 Q 236 -85.7 239.5 -89.4 L 239.5 -89.4 L 239.5 -89.4 Q 243 -93 243 -98.7 L 243 -98.7 L 243 -98.7 Q 243 -100.7 242.3 -101.7 L 242.3 -101.7 L 242.3 -101.7 Q 241.6 -102.8 240.1 -102.8 L 240.1 -102.8 L 240.1 -102.8 Q 238.7 -102.8 237.4 -102.2 L 237.4 -102.2 L 237.4 -102.2 Q 236.2 -101.7 234.9 -99.8 L 234.9 -99.8 L 234.9 -99.8 Q 231.8 -95.6 230 -85.7 Z M 283.5 -91.9 L 283.5 -91.9 L 283.5 -91.9 Q 284.7 -95 284.7 -97.8 L 284.7 -97.8 L 284.7 -97.8 Q 284.7 -102.8 280.7 -102.8 L 280.7 -102.8 L 280.7 -102.8 Q 278.5 -102.8 276.8 -100.9 L 276.8 -100.9 L 276.8 -100.9 Q 275 -99 275 -96.6 L 275 -96.6 L 275 -96.6 Q 275 -94.9 276.4 -93.5 L 276.4 -93.5 L 276.4 -93.5 Q 278.4 -91.6 283.4 -88.6 L 283.4 -88.6 L 283.4 -88.6 Q 288.4 -85.5 290.3 -83 L 290.3 -83 L 290.3 -83 Q 292.2 -80.5 292.2 -77.1 L 292.2 -77.1 L 292.2 -77.1 Q 292.2 -73.6 290.6 -70.5 L 290.6 -70.5 L 290.6 -70.5 Q 288.9 -67.3 285.9 -65.1 L 285.9 -65.1 L 285.9 -65.1 Q 279.6 -60.4 269.4 -60.4 L 269.4 -60.4 L 269.4 -60.4 Q 263.8 -60.4 259.6 -63.3 L 259.6 -63.3 L 259.6 -63.3 Q 255.3 -66.1 255.3 -69.4 L 255.3 -69.4 L 255.3 -69.4 Q 255.3 -72.7 257.7 -74.6 L 257.7 -74.6 L 257.7 -74.6 Q 260.2 -76.6 263.7 -76.6 L 263.7 -76.6 L 263.7 -76.6 Q 267.3 -76.6 269.5 -75.2 L 269.5 -75.2 L 269.5 -75.2 Q 268.4 -72.4 268.4 -70.6 L 268.4 -70.6 L 268.4 -70.6 Q 268.4 -65 273.2 -65 L 273.2 -65 L 273.2 -65 Q 275.2 -65 276.6 -66.2 L 276.6 -66.2 L 276.6 -66.2 Q 277.9 -67.5 277.9 -69.7 L 277.9 -69.7 L 277.9 -69.7 Q 277.9 -74.1 270.6 -78.6 L 270.6 -78.6 L 270.6 -78.6 Q 264.7 -82.6 263.3 -84.1 L 263.3 -84.1 L 263.3 -84.1 Q 261 -86.8 261 -90.2 L 261 -90.2 L 261 -90.2 Q 261 -93.6 262.6 -96.8 L 262.6 -96.8 L 262.6 -96.8 Q 264.3 -100.1 267.2 -102.4 L 267.2 -102.4 L 267.2 -102.4 Q 273.4 -107.1 284.2 -107.1 L 284.2 -107.1 L 284.2 -107.1 Q 289.8 -107.1 293 -104.9 L 293 -104.9 L 293 -104.9 Q 296.3 -102.7 296.3 -99 L 296.3 -99 L 296.3 -99 Q 296.3 -95.2 294 -93.1 L 294 -93.1 L 294 -93.1 Q 291.8 -91 287.7 -91 L 287.7 -91 L 287.7 -91 Q 284.9 -91 283.5 -91.9 Z M 351.4 -89.4 L 368.5 -91 L 368.5 -91 Q 362.4 -77.5 362.4 -62 L 362.4 -62 L 362.4 -62 Q 360.1 -60.4 356.8 -60.4 L 356.8 -60.4 L 356.8 -60.4 Q 353.4 -60.4 351.3 -61.9 L 351.3 -61.9 L 351.3 -61.9 Q 349.2 -63.5 348.7 -65.1 L 348.7 -65.1 L 348.7 -65.1 Q 346.6 -62.9 343.2 -61.6 L 343.2 -61.6 L 343.2 -61.6 Q 339.7 -60.4 336.1 -60.4 L 336.1 -60.4 L 336.1 -60.4 Q 332.4 -60.4 329.2 -61.6 L 329.2 -61.6 L 329.2 -61.6 Q 326 -62.7 323.6 -65.4 L 323.6 -65.4 L 323.6 -65.4 Q 318.1 -71.2 318.1 -82.1 L 318.1 -82.1 L 318.1 -82.1 Q 318.1 -99.1 327.2 -109.3 L 327.2 -109.3 L 327.2 -109.3 Q 336.6 -119.9 353.2 -119.9 L 353.2 -119.9 L 353.2 -119.9 Q 364.6 -119.9 368.7 -113.9 L 368.7 -113.9 L 368.7 -113.9 Q 370 -112 370 -109.8 L 370 -109.8 L 370 -109.8 Q 370 -107.5 369 -105.6 L 369 -105.6 L 369 -105.6 Q 368 -103.7 366.5 -102.2 L 366.5 -102.2 L 366.5 -102.2 Q 362.9 -98.8 358.3 -98.8 L 358.3 -98.8 L 358.3 -98.8 Q 356.6 -98.8 354.9 -99.4 L 354.9 -99.4 L 354.9 -99.4 Q 355.2 -101.9 355.2 -104.9 L 355.2 -104.9 L 355.2 -104.9 Q 355.2 -107.9 355 -109.2 L 355 -109.2 L 355 -109.2 Q 354.8 -110.6 354.3 -111.7 L 354.3 -111.7 L 354.3 -111.7 Q 353.2 -114 350.7 -114 L 350.7 -114 L 350.7 -114 Q 348.3 -114 345.6 -111.4 L 345.6 -111.4 L 345.6 -111.4 Q 343 -108.8 340.8 -104.6 L 340.8 -104.6 L 340.8 -104.6 Q 336.2 -95 336.2 -83.6 L 336.2 -83.6 L 336.2 -83.6 Q 336.2 -78.3 338.2 -74.6 L 338.2 -74.6 L 338.2 -74.6 Q 340.4 -70.5 344.3 -70.5 L 344.3 -70.5 L 344.3 -70.5 Q 345.7 -70.5 346.9 -71.2 L 346.9 -71.2 L 346.9 -71.2 Q 348.1 -71.8 348.7 -72.4 L 348.7 -72.4 L 351.4 -89.4 Z M 376.4 -64.6 L 376.4 -64.6 L 376.4 -64.6 Q 374.4 -66.8 373.5 -70.3 L 373.5 -70.3 L 373.5 -70.3 Q 372.6 -73.8 372.6 -79.5 L 372.6 -79.5 L 372.6 -79.5 Q 372.6 -85.2 374.6 -90.4 L 374.6 -90.4 L 374.6 -90.4 Q 376.5 -95.6 380.1 -99.3 L 380.1 -99.3 L 380.1 -99.3 Q 387.4 -107.1 399.5 -107.1 L 399.5 -107.1 L 399.5 -107.1 Q 403.8 -107.1 407 -105.7 L 407 -105.7 L 421.5 -107.1 L 415.2 -74 L 415.2 -74 Q 415 -72.9 415 -71.1 L 415 -71.1 L 415 -71.1 Q 415 -69.2 416.1 -68 L 416.1 -68 L 416.1 -68 Q 417.3 -66.8 419 -66.7 L 419 -66.7 L 419 -66.7 Q 418.1 -63.8 415 -62.1 L 415 -62.1 L 415 -62.1 Q 411.9 -60.4 408.4 -60.4 L 408.4 -60.4 L 408.4 -60.4 Q 404.9 -60.4 402.6 -61.7 L 402.6 -61.7 L 402.6 -61.7 Q 400.3 -63 399.6 -65.2 L 399.6 -65.2 L 399.6 -65.2 Q 398.2 -63.1 395.3 -61.7 L 395.3 -61.7 L 395.3 -61.7 Q 392.4 -60.4 388.6 -60.4 L 388.6 -60.4 L 388.6 -60.4 Q 384.7 -60.4 381.6 -61.4 L 381.6 -61.4 L 381.6 -61.4 Q 378.4 -62.4 376.4 -64.6 Z M 394.3 -99.1 L 394.3 -99.1 L 394.3 -99.1 Q 393.4 -97.6 392.5 -95 L 392.5 -95 L 392.5 -95 Q 391.7 -92.4 390.3 -85.5 L 390.3 -85.5 L 390.3 -85.5 Q 388.9 -78.6 388.9 -73.6 L 388.9 -73.6 L 388.9 -73.6 Q 388.9 -68.7 389.6 -67.3 L 389.6 -67.3 L 389.6 -67.3 Q 390.4 -65.8 391.8 -65.8 L 391.8 -65.8 L 391.8 -65.8 Q 394.5 -65.8 396.5 -68.4 L 396.5 -68.4 L 396.5 -68.4 Q 398.5 -71 399.2 -75.6 L 399.2 -75.6 L 403.7 -100.5 L 403.7 -100.5 Q 402 -102 399.9 -102 L 399.9 -102 L 399.9 -102 Q 397.8 -102 396.6 -101.3 L 396.6 -101.3 L 396.6 -101.3 Q 395.3 -100.7 394.3 -99.1 Z M 446.4 -66.7 L 446.4 -66.7 L 446.4 -66.7 Q 443.8 -60.4 435.4 -60.4 L 435.4 -60.4 L 435.4 -60.4 Q 431.1 -60.4 428.4 -63.3 L 428.4 -63.3 L 428.4 -63.3 Q 426.2 -65.8 426.2 -68.6 L 426.2 -68.6 L 426.2 -68.6 Q 426.2 -75 429.2 -88.9 L 429.2 -88.9 L 435.4 -121.6 L 452.6 -123.3 L 444.4 -80.3 L 444.4 -80.3 Q 442.9 -74 442.9 -71.8 L 442.9 -71.8 L 442.9 -71.8 Q 442.9 -66.9 446.4 -66.7 Z M 473.9 -66.7 L 473.9 -66.7 L 473.9 -66.7 Q 471.3 -60.4 462.9 -60.4 L 462.9 -60.4 L 462.9 -60.4 Q 458.6 -60.4 455.9 -63.3 L 455.9 -63.3 L 455.9 -63.3 Q 453.7 -65.8 453.7 -68.6 L 453.7 -68.6 L 453.7 -68.6 Q 453.7 -75 456.7 -88.9 L 456.7 -88.9 L 462.9 -121.6 L 480.2 -123.3 L 471.9 -80.3 L 471.9 -80.3 Q 470.5 -74 470.5 -71.8 L 470.5 -71.8 L 470.5 -71.8 Q 470.5 -66.9 473.9 -66.7 Z M 515.6 -76.4 L 515.6 -76.4 L 515.6 -76.4 Q 517.7 -75 517.7 -71.8 L 517.7 -71.8 L 517.7 -71.8 Q 517.7 -68.6 516.1 -66.6 L 516.1 -66.6 L 516.1 -66.6 Q 514.5 -64.5 511.9 -63.2 L 511.9 -63.2 L 511.9 -63.2 Q 506.4 -60.4 500.6 -60.4 L 500.6 -60.4 L 500.6 -60.4 Q 494.7 -60.4 491.2 -61.6 L 491.2 -61.6 L 491.2 -61.6 Q 487.8 -62.9 485.5 -65.3 L 485.5 -65.3 L 485.5 -65.3 Q 481 -69.8 481 -78 L 481 -78 L 481 -78 Q 481 -90.9 488 -98.7 L 488 -98.7 L 488 -98.7 Q 495.5 -107.1 508.5 -107.1 L 508.5 -107.1 L 508.5 -107.1 Q 516.5 -107.1 520.5 -103.7 L 520.5 -103.7 L 520.5 -103.7 Q 523.5 -101.2 523.5 -97 L 523.5 -97 L 523.5 -97 Q 523.5 -82 497.7 -82 L 497.7 -82 L 497.7 -82 Q 497.3 -79.8 497.3 -78 L 497.3 -78 L 497.3 -78 Q 497.3 -74.1 499.1 -72.6 L 499.1 -72.6 L 499.1 -72.6 Q 500.8 -71.1 504 -71.1 L 504 -71.1 L 504 -71.1 Q 507.3 -71.1 510.7 -72.6 L 510.7 -72.6 L 510.7 -72.6 Q 514.2 -74.1 515.6 -76.4 Z M 498.3 -85.7 L 498.3 -85.7 L 498.3 -85.7 Q 504.3 -85.7 507.8 -89.4 L 507.8 -89.4 L 507.8 -89.4 Q 511.3 -93 511.3 -98.7 L 511.3 -98.7 L 511.3 -98.7 Q 511.3 -100.7 510.5 -101.7 L 510.5 -101.7 L 510.5 -101.7 Q 509.8 -102.8 508.4 -102.8 L 508.4 -102.8 L 508.4 -102.8 Q 506.9 -102.8 505.7 -102.2 L 505.7 -102.2 L 505.7 -102.2 Q 504.5 -101.7 503.2 -99.8 L 503.2 -99.8 L 503.2 -99.8 Q 500 -95.6 498.3 -85.7 Z M 553 -86 L 553 -86 L 553 -86 Q 556.1 -91.4 556.1 -96.9 L 556.1 -96.9 L 556.1 -96.9 Q 556.1 -100.6 553.4 -100.6 L 553.4 -100.6 L 553.4 -100.6 Q 551.4 -100.6 549.3 -97.1 L 549.3 -97.1 L 549.3 -97.1 Q 547 -93.6 546.4 -89.1 L 546.4 -89.1 L 541.9 -62.1 L 524.4 -60.4 L 533 -105.4 L 547 -107.1 L 545.5 -98.5 L 545.5 -98.5 Q 549.7 -107.1 559 -107.1 L 559 -107.1 L 559 -107.1 Q 564 -107.1 566.6 -104.6 L 566.6 -104.6 L 566.6 -104.6 Q 569.3 -102 569.3 -96.8 L 569.3 -96.8 L 569.3 -96.8 Q 569.3 -91.6 565.9 -88.2 L 565.9 -88.2 L 565.9 -88.2 Q 562.4 -84.9 556.6 -84.9 L 556.6 -84.9 L 556.6 -84.9 Q 554 -84.9 553 -86 Z M 597.7 -71.7 L 597.7 -71.7 L 597.7 -71.7 Q 593.3 -67.1 585.2 -67.1 L 585.2 -67.1 L 585.2 -67.1 Q 575.1 -67.1 573 -74.5 L 573 -74.5 L 573 -74.5 Q 572.3 -76.7 572.3 -79.2 L 572.3 -79.2 L 572.3 -79.2 Q 572.3 -81.6 572.8 -84.2 L 572.8 -84.2 L 576.8 -105.4 L 594.1 -107.1 L 589.4 -82.4 L 589.4 -82.4 Q 589.2 -81.3 589 -80.1 L 589 -80.1 L 589 -80.1 Q 588.7 -78.9 588.7 -77.7 L 588.7 -77.7 L 588.7 -77.7 Q 588.7 -76.4 589.1 -75.6 L 589.1 -75.6 L 589.1 -75.6 Q 589.5 -74.8 590.1 -74.3 L 590.1 -74.3 L 590.1 -74.3 Q 591.2 -73.6 593 -73.6 L 593 -73.6 L 593 -73.6 Q 594.8 -73.6 596.4 -75.8 L 596.4 -75.8 L 596.4 -75.8 Q 598 -78 598.7 -81.9 L 598.7 -81.9 L 603.4 -105.4 L 620.1 -107.1 L 613.8 -73.7 L 613.8 -73.7 Q 610.6 -57.4 604.2 -50.9 L 604.2 -50.9 L 604.2 -50.9 Q 600.9 -47.6 596.6 -46.3 L 596.6 -46.3 L 596.6 -46.3 Q 592.3 -45 586.7 -45 L 586.7 -45 L 586.7 -45 Q 577.8 -45 572.7 -47.8 L 572.7 -47.8 L 572.7 -47.8 Q 567.6 -50.6 567.6 -55.3 L 567.6 -55.3 L 567.6 -55.3 Q 567.6 -58.7 570.3 -60.7 L 570.3 -60.7 L 570.3 -60.7 Q 572.9 -62.7 577 -62.7 L 577 -62.7 L 577 -62.7 Q 580.5 -62.7 583.3 -61.2 L 583.3 -61.2 L 583.3 -61.2 Q 584.9 -60.3 585.6 -59.1 L 585.6 -59.1 L 585.6 -59.1 Q 583.7 -57.4 583.7 -54.6 L 583.7 -54.6 L 583.7 -54.6 Q 583.7 -50.8 587.1 -50.8 L 587.1 -50.8 L 587.1 -50.8 Q 592.7 -50.8 595.9 -63.8 L 595.9 -63.8 L 595.9 -63.8 Q 596.9 -67.6 597.7 -71.7 Z" fill="#774023"></path></g></g><style>text {
  font-size: 64px;
  font-family: Arial Black;
  dominant-baseline: central;
  text-anchor: middle;
}</style></svg>