<svg width="867.2373535156249px" height="154.4px" xmlns="http://www.w3.org/2000/svg" viewBox="-183.61867675781247 -2.200000000000003 867.2373535156249 154.4" style="background:#596886" preserveAspectRatio="xMidYMid"><defs><filter id="editing-hover" x="-100%" y="-100%" width="300%" height="300%"><feFlood flood-color="#052b4a" result="flood"></feFlood><feComposite operator="in" in2="SourceAlpha" in="flood" result="shadow"></feComposite><feOffset dx="-4" dy="-4" in="SourceGraphic" result="offset-1"></feOffset><feOffset dx="4" dy="4" in="shadow" result="offset-2"></feOffset><feMerge><feMergeNode in="offset-2"></feMergeNode><feMergeNode in="offset-1"></feMergeNode></feMerge></filter></defs><g filter="url(#editing-hover)"><g transform="translate(-60.930009603500366, 114.1449966430664)"><path d="M19.04 0L0.51 0L11.31-56.10L30.01-56.10L19.04 0ZM93.08 1.70L93.08 1.70L93.08 1.70Q82.79 1.70 82.79-6.29L82.79-6.29L82.79-6.29Q82.79-9.78 84.28-16.53L84.28-16.53L84.28-16.53Q85.77-23.29 86.28-26.01L86.28-26.01L86.28-26.01Q87.47-32.22 87.47-34.17L87.47-34.17L87.47-34.17Q87.47-38.51 84.24-38.51L84.24-38.51L84.24-38.51Q82.11-38.51 80.07-35.57L80.07-35.57L80.07-35.57Q78.03-32.64 77.10-26.78L77.10-26.78L71.83 0L55.25 1.70L59.84-21.42L59.84-21.42Q60.61-25.25 61.29-29.58L61.29-29.58L61.29-29.58Q61.97-33.91 61.97-34.60L61.97-34.60L61.97-34.60Q61.97-38.51 59.08-38.51L59.08-38.51L59.08-38.51Q57.12-38.51 55.00-35.62L55.00-35.62L55.00-35.62Q52.87-32.73 51.68-26.78L51.68-26.78L46.50 0L29.75 1.70L38.68-43.35L52.53-45.05L51.09-36.47L51.09-36.47Q53.30-41.05 57.38-43.05L57.38-43.05L57.38-43.05Q61.46-45.05 67.83-45.05L67.83-45.05L67.83-45.05Q71.48-45.05 73.87-43.27L73.87-43.27L73.87-43.27Q76.25-41.48 77.01-38.59L77.01-38.59L77.01-38.59Q78.46-41.57 82.15-43.31L82.15-43.31L82.15-43.31Q85.85-45.05 90.40-45.05L90.40-45.05L90.40-45.05Q94.95-45.05 97.20-44.07L97.20-44.07L97.20-44.07Q99.45-43.10 100.81-41.48L100.81-41.48L100.81-41.48Q103.11-38.51 103.11-33.07L103.11-33.07L103.11-33.07Q103.11-27.71 100.81-16.58L100.81-16.58L100.81-16.58Q99.62-11.14 99.62-9.14L99.62-9.14L99.62-9.14Q99.62-7.14 100.77-5.95L100.77-5.95L100.77-5.95Q101.92-4.76 103.62-4.59L103.62-4.59L103.62-4.59Q102.77-1.70 99.83 0L99.83 0L99.83 0Q96.90 1.70 93.08 1.70ZM113.86-2.55L113.86-2.55L113.86-2.55Q111.86-4.76 110.97-8.25L110.97-8.25L110.97-8.25Q110.08-11.73 110.08-17.43L110.08-17.43L110.08-17.43Q110.08-23.12 112.03-28.31L112.03-28.31L112.03-28.31Q113.99-33.49 117.56-37.23L117.56-37.23L117.56-37.23Q124.87-45.05 136.94-45.05L136.94-45.05L136.94-45.05Q141.27-45.05 144.42-43.61L144.42-43.61L158.95-45.05L152.66-11.90L152.66-11.90Q152.41-10.88 152.41-9.01L152.41-9.01L152.41-9.01Q152.41-7.14 153.55-5.95L153.55-5.95L153.55-5.95Q154.70-4.76 156.40-4.59L156.40-4.59L156.40-4.59Q155.55-1.70 152.45 0L152.45 0L152.45 0Q149.35 1.70 145.86 1.70L145.86 1.70L145.86 1.70Q142.38 1.70 140.04 0.38L140.04 0.38L140.04 0.38Q137.70-0.94 137.02-3.15L137.02-3.15L137.02-3.15Q135.66-1.02 132.77 0.34L132.77 0.34L132.77 0.34Q129.88 1.70 126.01 1.70L126.01 1.70L126.01 1.70Q122.15 1.70 119.00 0.68L119.00 0.68L119.00 0.68Q115.86-0.34 113.86-2.55ZM131.79-37.06L131.79-37.06L131.79-37.06Q130.82-35.53 129.97-32.94L129.97-32.94L129.97-32.94Q129.12-30.35 127.71-23.42L127.71-23.42L127.71-23.42Q126.31-16.49 126.31-11.56L126.31-11.56L126.31-11.56Q126.31-6.63 127.08-5.19L127.08-5.19L127.08-5.19Q127.84-3.74 129.20-3.74L129.20-3.74L129.20-3.74Q131.92-3.74 133.92-6.33L133.92-6.33L133.92-6.33Q135.92-8.93 136.68-13.52L136.68-13.52L141.19-38.42L141.19-38.42Q139.40-39.95 137.32-39.95L137.32-39.95L137.32-39.95Q135.24-39.95 134.00-39.27L134.00-39.27L134.00-39.27Q132.77-38.59 131.79-37.06ZM169.24-35.53L169.24-35.53L169.24-35.53Q172.13-39.61 176.50-42.33L176.50-42.33L176.50-42.33Q180.88-45.05 186.24-45.05L186.24-45.05L186.24-45.05Q191.59-45.05 194.14-43.35L194.14-43.35L210.80-45.05L205.02-12.41L205.02-12.41Q202.05 4.25 195.76 10.79L195.76 10.79L195.76 10.79Q189.72 17 177.99 17L177.99 17L177.99 17Q169.07 17 163.97 14.20L163.97 14.20L163.97 14.20Q158.87 11.39 158.87 6.72L158.87 6.72L158.87 6.72Q158.87 3.23 161.50 1.23L161.50 1.23L161.50 1.23Q164.14-0.77 168.22-0.77L168.22-0.77L168.22-0.77Q171.79-0.77 174.51 0.85L174.51 0.85L174.51 0.85Q176.12 1.70 176.89 2.89L176.89 2.89L176.89 2.89Q174.93 4.59 174.93 7.40L174.93 7.40L174.93 7.40Q174.93 11.05 178.33 11.05L178.33 11.05L178.33 11.05Q184.03 11.05 187.26-2.38L187.26-2.38L187.26-2.38Q188.19-6.04 188.96-9.69L188.96-9.69L188.96-9.69Q185.13-5.02 176.46-5.02L176.46-5.02L176.46-5.02Q170.43-5.02 166.94-7.91L166.94-7.91L166.94-7.91Q163.46-10.79 163.46-17.60L163.46-17.60L163.46-17.60Q163.46-21.85 164.90-26.65L164.90-26.65L164.90-26.65Q166.35-31.45 169.24-35.53ZM180.29-17.34L180.29-17.34L180.29-17.34Q180.29-11.56 183.26-11.56L183.26-11.56L183.26-11.56Q185.30-11.56 187.26-13.77L187.26-13.77L187.26-13.77Q188.79-15.56 189.38-18.19L189.38-18.19L193.72-40.04L193.72-40.04Q193.29-40.12 192.87-40.29L192.87-40.29L192.87-40.29Q192.02-40.63 190.91-40.63L190.91-40.63L190.91-40.63Q185.73-40.63 182.67-32.13L182.67-32.13L182.67-32.13Q180.29-25.50 180.29-17.34ZM248.54-14.37L248.54-14.37L248.54-14.37Q250.67-12.92 250.67-9.73L250.67-9.73L250.67-9.73Q250.67-6.55 249.05-4.50L249.05-4.50L249.05-4.50Q247.44-2.47 244.80-1.10L244.80-1.10L244.80-1.10Q239.36 1.70 233.50 1.70L233.50 1.70L233.50 1.70Q227.63 1.70 224.19 0.43L224.19 0.43L224.19 0.43Q220.75-0.85 218.45-3.23L218.45-3.23L218.45-3.23Q213.95-7.74 213.95-15.98L213.95-15.98L213.95-15.98Q213.95-28.82 220.92-36.64L220.92-36.64L220.92-36.64Q228.40-45.05 241.40-45.05L241.40-45.05L241.40-45.05Q249.48-45.05 253.47-41.65L253.47-41.65L253.47-41.65Q256.45-39.10 256.45-34.94L256.45-34.94L256.45-34.94Q256.45-19.98 230.61-19.98L230.61-19.98L230.61-19.98Q230.27-17.77 230.27-15.90L230.27-15.90L230.27-15.90Q230.27-11.99 232.01-10.50L232.01-10.50L232.01-10.50Q233.75-9.01 236.98-9.01L236.98-9.01L236.98-9.01Q240.21-9.01 243.65-10.50L243.65-10.50L243.65-10.50Q247.10-11.99 248.54-14.37ZM231.20-23.63L231.20-23.63L231.20-23.63Q237.24-23.63 240.72-27.37L240.72-27.37L240.72-27.37Q244.21-30.94 244.21-36.64L244.21-36.64L244.21-36.64Q244.21-38.59 243.48-39.65L243.48-39.65L243.48-39.65Q242.76-40.72 241.32-40.72L241.32-40.72L241.32-40.72Q239.87-40.72 238.64-40.16L238.64-40.16L238.64-40.16Q237.41-39.61 236.13-37.74L236.13-37.74L236.13-37.74Q232.99-33.49 231.20-23.63ZM284.75-29.84L284.75-29.84L284.75-29.84Q285.94-32.98 285.94-35.70L285.94-35.70L285.94-35.70Q285.94-40.72 281.86-40.72L281.86-40.72L281.86-40.72Q279.74-40.72 277.99-38.80L277.99-38.80L277.99-38.80Q276.25-36.89 276.25-34.51L276.25-34.51L276.25-34.51Q276.25-32.81 277.61-31.45L277.61-31.45L277.61-31.45Q279.57-29.58 284.58-26.52L284.58-26.52L284.58-26.52Q289.60-23.46 291.51-20.95L291.51-20.95L291.51-20.95Q293.42-18.45 293.42-15.00L293.42-15.00L293.42-15.00Q293.42-11.56 291.76-8.42L291.76-8.42L291.76-8.42Q290.11-5.27 287.13-3.06L287.13-3.06L287.13-3.06Q280.76 1.70 270.56 1.70L270.56 1.70L270.56 1.70Q265.03 1.70 260.78-1.19L260.78-1.19L260.78-1.19Q256.53-4.00 256.53-7.31L256.53-7.31L256.53-7.31Q256.53-10.63 258.95-12.58L258.95-12.58L258.95-12.58Q261.38-14.54 264.95-14.54L264.95-14.54L264.95-14.54Q268.52-14.54 270.73-13.18L270.73-13.18L270.73-13.18Q269.62-10.37 269.62-8.50L269.62-8.50L269.62-8.50Q269.62-2.89 274.38-2.89L274.38-2.89L274.38-2.89Q276.42-2.89 277.78-4.17L277.78-4.17L277.78-4.17Q279.14-5.44 279.14-7.65L279.14-7.65L279.14-7.65Q279.14-11.99 271.83-16.58L271.83-16.58L271.83-16.58Q265.88-20.49 264.52-22.02L264.52-22.02L264.52-22.02Q262.23-24.74 262.23-28.14L262.23-28.14L262.23-28.14Q262.23-31.54 263.84-34.77L263.84-34.77L263.84-34.77Q265.46-38.00 268.43-40.29L268.43-40.29L268.43-40.29Q274.64-45.05 285.43-45.05L285.43-45.05L285.43-45.05Q290.96-45.05 294.23-42.84L294.23-42.84L294.23-42.84Q297.50-40.63 297.50-36.89L297.50-36.89L297.50-36.89Q297.50-33.15 295.25-31.03L295.25-31.03L295.25-31.03Q293.00-28.90 288.92-28.90L288.92-28.90L288.92-28.90Q286.11-28.90 284.75-29.84ZM352.58-27.37L369.75-28.90L369.75-28.90Q363.63-15.47 363.63 0.09L363.63 0.09L363.63 0.09Q361.34 1.70 357.98 1.70L357.98 1.70L357.98 1.70Q354.62 1.70 352.50 0.13L352.50 0.13L352.50 0.13Q350.37-1.45 349.95-3.06L349.95-3.06L349.95-3.06Q347.82-0.85 344.38 0.43L344.38 0.43L344.38 0.43Q340.94 1.70 337.28 1.70L337.28 1.70L337.28 1.70Q333.63 1.70 330.44 0.51L330.44 0.51L330.44 0.51Q327.25-0.68 324.79-3.32L324.79-3.32L324.79-3.32Q319.35-9.10 319.35-20.06L319.35-20.06L319.35-20.06Q319.35-37.06 328.44-47.26L328.44-47.26L328.44-47.26Q337.79-57.80 354.37-57.80L354.37-57.80L354.37-57.80Q365.84-57.80 369.92-51.85L369.92-51.85L369.92-51.85Q371.20-49.98 371.20-47.73L371.20-47.73L371.20-47.73Q371.20-45.48 370.22-43.56L370.22-43.56L370.22-43.56Q369.24-41.65 367.71-40.12L367.71-40.12L367.71-40.12Q364.06-36.72 359.55-36.72L359.55-36.72L359.55-36.72Q357.77-36.72 356.07-37.32L356.07-37.32L356.07-37.32Q356.41-39.87 356.41-42.84L356.41-42.84L356.41-42.84Q356.41-45.82 356.19-47.18L356.19-47.18L356.19-47.18Q355.98-48.54 355.47-49.64L355.47-49.64L355.47-49.64Q354.37-51.94 351.94-51.94L351.94-51.94L351.94-51.94Q349.52-51.94 346.84-49.34L346.84-49.34L346.84-49.34Q344.17-46.75 342.04-42.50L342.04-42.50L342.04-42.50Q337.37-32.98 337.37-21.51L337.37-21.51L337.37-21.51Q337.37-16.23 339.41-12.50L339.41-12.50L339.41-12.50Q341.62-8.42 345.53-8.42L345.53-8.42L345.53-8.42Q346.89-8.42 348.12-9.10L348.12-9.10L348.12-9.10Q349.35-9.78 349.86-10.29L349.86-10.29L352.58-27.37ZM377.61-2.55L377.61-2.55L377.61-2.55Q375.62-4.76 374.72-8.25L374.72-8.25L374.72-8.25Q373.83-11.73 373.83-17.43L373.83-17.43L373.83-17.43Q373.83-23.12 375.79-28.31L375.79-28.31L375.79-28.31Q377.74-33.49 381.31-37.23L381.31-37.23L381.31-37.23Q388.62-45.05 400.69-45.05L400.69-45.05L400.69-45.05Q405.03-45.05 408.17-43.61L408.17-43.61L422.71-45.05L416.42-11.90L416.42-11.90Q416.16-10.88 416.16-9.01L416.16-9.01L416.16-9.01Q416.16-7.14 417.31-5.95L417.31-5.95L417.31-5.95Q418.46-4.76 420.16-4.59L420.16-4.59L420.16-4.59Q419.31-1.70 416.20 0L416.20 0L416.20 0Q413.10 1.70 409.62 1.70L409.62 1.70L409.62 1.70Q406.13 1.70 403.79 0.38L403.79 0.38L403.79 0.38Q401.46-0.94 400.78-3.15L400.78-3.15L400.78-3.15Q399.42-1.02 396.53 0.34L396.53 0.34L396.53 0.34Q393.64 1.70 389.77 1.70L389.77 1.70L389.77 1.70Q385.90 1.70 382.76 0.68L382.76 0.68L382.76 0.68Q379.61-0.34 377.61-2.55ZM395.55-37.06L395.55-37.06L395.55-37.06Q394.57-35.53 393.72-32.94L393.72-32.94L393.72-32.94Q392.87-30.35 391.47-23.42L391.47-23.42L391.47-23.42Q390.07-16.49 390.07-11.56L390.07-11.56L390.07-11.56Q390.07-6.63 390.83-5.19L390.83-5.19L390.83-5.19Q391.60-3.74 392.96-3.74L392.96-3.74L392.96-3.74Q395.68-3.74 397.67-6.33L397.67-6.33L397.67-6.33Q399.67-8.93 400.44-13.52L400.44-13.52L404.94-38.42L404.94-38.42Q403.16-39.95 401.07-39.95L401.07-39.95L401.07-39.95Q398.99-39.95 397.76-39.27L397.76-39.27L397.76-39.27Q396.53-38.59 395.55-37.06ZM447.61-4.68L447.61-4.68L447.61-4.68Q444.98 1.70 436.56 1.70L436.56 1.70L436.56 1.70Q432.31 1.70 429.59-1.28L429.59-1.28L429.59-1.28Q427.38-3.74 427.38-6.55L427.38-6.55L427.38-6.55Q427.38-12.92 430.36-26.86L430.36-26.86L436.56-59.50L453.82-61.20L445.57-18.19L445.57-18.19Q444.13-11.90 444.13-9.69L444.13-9.69L444.13-9.69Q444.13-4.85 447.61-4.68ZM475.15-4.68L475.15-4.68L475.15-4.68Q472.52 1.70 464.10 1.70L464.10 1.70L464.10 1.70Q459.85 1.70 457.13-1.28L457.13-1.28L457.13-1.28Q454.92-3.74 454.92-6.55L454.92-6.55L454.92-6.55Q454.92-12.92 457.90-26.86L457.90-26.86L464.10-59.50L481.36-61.20L473.11-18.19L473.11-18.19Q471.67-11.90 471.67-9.69L471.67-9.69L471.67-9.69Q471.67-4.85 475.15-4.68ZM516.80-14.37L516.80-14.37L516.80-14.37Q518.93-12.92 518.93-9.73L518.93-9.73L518.93-9.73Q518.93-6.55 517.31-4.50L517.31-4.50L517.31-4.50Q515.70-2.47 513.06-1.10L513.06-1.10L513.06-1.10Q507.62 1.70 501.76 1.70L501.76 1.70L501.76 1.70Q495.89 1.70 492.45 0.43L492.45 0.43L492.45 0.43Q489.01-0.85 486.71-3.23L486.71-3.23L486.71-3.23Q482.21-7.74 482.21-15.98L482.21-15.98L482.21-15.98Q482.21-28.82 489.18-36.64L489.18-36.64L489.18-36.64Q496.66-45.05 509.66-45.05L509.66-45.05L509.66-45.05Q517.74-45.05 521.73-41.65L521.73-41.65L521.73-41.65Q524.71-39.10 524.71-34.94L524.71-34.94L524.71-34.94Q524.71-19.98 498.87-19.98L498.87-19.98L498.87-19.98Q498.53-17.77 498.53-15.90L498.53-15.90L498.53-15.90Q498.53-11.99 500.27-10.50L500.27-10.50L500.27-10.50Q502.01-9.01 505.24-9.01L505.24-9.01L505.24-9.01Q508.47-9.01 511.91-10.50L511.91-10.50L511.91-10.50Q515.36-11.99 516.80-14.37ZM499.46-23.63L499.46-23.63L499.46-23.63Q505.50-23.63 508.98-27.37L508.98-27.37L508.98-27.37Q512.47-30.94 512.47-36.64L512.47-36.64L512.47-36.64Q512.47-38.59 511.74-39.65L511.74-39.65L511.74-39.65Q511.02-40.72 509.58-40.72L509.58-40.72L509.58-40.72Q508.13-40.72 506.90-40.16L506.90-40.16L506.90-40.16Q505.67-39.61 504.39-37.74L504.39-37.74L504.39-37.74Q501.25-33.49 499.46-23.63ZM554.20-23.89L554.20-23.89L554.20-23.89Q557.26-29.33 557.26-34.85L557.26-34.85L557.26-34.85Q557.26-38.51 554.63-38.51L554.63-38.51L554.63-38.51Q552.59-38.51 550.46-35.02L550.46-35.02L550.46-35.02Q548.25-31.54 547.57-27.03L547.57-27.03L543.15 0L525.56 1.70L534.23-43.35L548.25-45.05L546.72-36.47L546.72-36.47Q550.89-45.05 560.24-45.05L560.24-45.05L560.24-45.05Q565.17-45.05 567.84-42.50L567.84-42.50L567.84-42.50Q570.52-39.95 570.52-34.72L570.52-34.72L570.52-34.72Q570.52-29.50 567.08-26.18L567.08-26.18L567.08-26.18Q563.64-22.87 557.77-22.87L557.77-22.87L557.77-22.87Q555.22-22.87 554.20-23.89ZM598.91-9.61L598.91-9.61L598.91-9.61Q594.49-5.02 586.42-5.02L586.42-5.02L586.42-5.02Q576.30-5.02 574.18-12.41L574.18-12.41L574.18-12.41Q573.50-14.62 573.50-17.09L573.50-17.09L573.50-17.09Q573.50-19.55 574.01-22.10L574.01-22.10L578.00-43.35L595.26-45.05L590.58-20.32L590.58-20.32Q590.41-19.21 590.16-18.02L590.16-18.02L590.16-18.02Q589.90-16.83 589.90-15.60L589.90-15.60L589.90-15.60Q589.90-14.37 590.33-13.56L590.33-13.56L590.33-13.56Q590.75-12.75 591.35-12.24L591.35-12.24L591.35-12.24Q592.37-11.56 594.19-11.56L594.19-11.56L594.19-11.56Q596.02-11.56 597.59-13.77L597.59-13.77L597.59-13.77Q599.17-15.98 599.93-19.80L599.93-19.80L604.61-43.35L621.35-45.05L614.98-11.65L614.98-11.65Q611.83 4.68 605.37 11.14L605.37 11.14L605.37 11.14Q602.06 14.45 597.76 15.77L597.76 15.77L597.76 15.77Q593.47 17.09 587.95 17.09L587.95 17.09L587.95 17.09Q579.02 17.09 573.92 14.28L573.92 14.28L573.92 14.28Q568.82 11.48 568.82 6.80L568.82 6.80L568.82 6.80Q568.82 3.32 571.46 1.32L571.46 1.32L571.46 1.32Q574.09-0.68 578.17-0.68L578.17-0.68L578.17-0.68Q581.74-0.68 584.46 0.85L584.46 0.85L584.46 0.85Q586.08 1.79 586.84 2.98L586.84 2.98L586.84 2.98Q584.89 4.68 584.89 7.48L584.89 7.48L584.89 7.48Q584.89 11.22 588.29 11.22L588.29 11.22L588.29 11.22Q593.90 11.22 597.13-1.70L597.13-1.70L597.13-1.70Q598.06-5.53 598.91-9.61Z" fill="#ffd5af"></path></g></g><style>text {
  font-size: 64px;
  font-family: Arial Black;
  dominant-baseline: central;
  text-anchor: middle;
}</style></svg>